<svg xmlns="http://www.w3.org/2000/svg" xmlns:xlink="http://www.w3.org/1999/xlink" fill="none" version="1.1" width="30" height="30" viewBox="0 0 30 30"><defs><clipPath id="master_svg0_5_3886"><rect x="0" y="0" width="30" height="30" rx="0"/></clipPath></defs><g clip-path="url(#master_svg0_5_3886)"><g transform="matrix(1,0,0,-1,0,61.2890625)"><g><path d="M10.7812,60.64453125Q12.1875,60.58593125,13.125,59.70703125Q14.0039,58.76953125,14.0625,57.36333125L14.0625,33.92578125Q14.0039,32.51953125,13.125,31.58203125Q12.1875,30.70312505,10.7812,30.64453125Q9.49219,30.64453125,8.55469,31.46484325Q7.67578,32.28515125,7.5,33.57422125Q7.03125,33.45703125,6.5625,33.45703125Q4.98047,33.51562125,3.92578,34.57031125Q2.87109,35.62500125,2.8125,37.20703125Q2.8125,37.85156125,3.04688,38.43750125Q1.69922,38.96484125,0.820312,40.13672125Q0,41.30863125,0,42.83203125Q0,44.23833125,0.761719,45.35153125Q1.46484,46.46483125,2.69531,47.05073125Q1.875,48.04683125,1.875,49.39453125Q1.875,50.74223125,2.69531,51.73833125Q3.51562,52.73433125,4.80469,53.08593125Q4.6875,53.55473125,4.6875,54.08203125Q4.6875,55.42973125,5.50781,56.42573125Q6.26953,57.36333125,7.5,57.71483125Q7.67578,59.00393125,8.55469,59.82423125Q9.49219,60.64453125,10.7812,60.64453125ZM19.2188,60.64453125Q20.5078,60.64453125,21.4453,59.82423125Q22.3242,59.00393125,22.5,57.71483125Q23.7305,57.36333125,24.4922,56.42573125Q25.3125,55.42973125,25.3125,54.08203125Q25.3125,53.55473125,25.1953,53.08593125Q26.4844,52.73433125,27.3047,51.73833125Q28.125,50.74223125,28.125,49.39453125Q28.125,48.04683125,27.3047,47.05073125Q28.5352,46.46483125,29.2383,45.35153125Q30,44.23833125,30,42.83203125Q30,41.30863125,29.1797,40.13672125Q28.3008,38.96484125,26.9531,38.43750125Q27.1875,37.85156125,27.1875,37.20703125Q27.1289,35.62500125,26.0742,34.57031125Q25.0195,33.51562125,23.4375,33.45703125Q22.9688,33.45703125,22.5,33.57422125Q22.3242,32.28515125,21.4453,31.46484325Q20.5078,30.64453125,19.2188,30.64453125Q17.8125,30.70312505,16.875,31.58203125Q15.9961,32.51953125,15.9375,33.92578125L15.9375,57.36333125Q15.9961,58.76953125,16.875,59.70703125Q17.8125,60.58593125,19.2188,60.64453125Z" fill="#FFFFFF" fill-opacity="1" style="mix-blend-mode:passthrough"/></g></g></g></svg>