<svg xmlns="http://www.w3.org/2000/svg" xmlns:xlink="http://www.w3.org/1999/xlink" fill="none" version="1.1" width="30" height="30.000001907348633" viewBox="0 0 30 30.000001907348633"><defs><clipPath id="master_svg0_5_9298"><rect x="0" y="0" width="30" height="30.000001907348633" rx="0"/></clipPath></defs><g clip-path="url(#master_svg0_5_9298)"><g><path d="M9.3974609375,5.44599875L9.3974609375,4.13671875L10.9619109375,4.13671875L10.9619109375,5.44599875C10.9619109375,5.87800875,10.6117009375,6.22821875,10.1796879375,6.22821875C9.7476749375,6.22821875,9.3974609375,5.87800875,9.3974609375,5.44599875ZM19.045210937500002,5.44599875L19.045210937500002,4.13671875L20.6096609375,4.13671875L20.6096609375,5.44599875C20.6096609375,5.87800875,20.259460937500002,6.22821875,19.8274609375,6.22821875C19.395430937500002,6.22821875,19.045220937499998,5.87800875,19.045210937500002,5.44599875Z" fill="#FFFFFF" fill-opacity="1" style="mix-blend-mode:passthrough"/></g><g><path d="M26.4841859375,5.74804875L26.4841859375,9.72275875L3.47559051514,9.72275875L3.47559051514,5.74804875C3.47559022903,4.85813475,4.1970069375,4.13671875,5.0869159375,4.13671875L8.7258859375,4.13671875L8.7258859375,5.44599875C8.737155937499999,6.24073875,9.384625937500001,6.87908875,10.179445937499999,6.87908875C10.9742659375,6.87908875,11.6217359375,6.24073875,11.6330159375,5.44599875L11.6330159375,4.13671875L18.3736859375,4.13671875L18.3736859375,5.44599875C18.3848859375,6.24073875,19.032385937500003,6.87908875,19.8271859375,6.87908875C20.6219859375,6.87908875,21.2694859375,6.24073875,21.2807859375,5.44599875L21.2807859375,4.13671875L24.8728859375,4.13671875C25.7616859375,4.13929367,26.4815859375,4.85920375,26.4841859375,5.74804875ZM3.47559051514,11.065428749999999L3.47559051514,25.62131875C3.4734779375,26.51211875,4.1961329375,27.23471875,5.0869159375,27.23261875L24.8728859375,27.23261875C25.7627859375,27.23261875,26.4841859375,26.51121875,26.4841859375,25.62131875L26.4841859375,11.065428749999999L3.47559051514,11.065428749999999ZM10.3506859375,22.31131875L8.6655359375,22.31131875C8.300225937499999,22.30371875,8.0080759375,22.00541875,8.0080759375,21.64001875C8.0080759375,21.27461875,8.300225937499999,20.97631875,8.6655359375,20.96861875L10.3506859375,20.96861875C10.715985937500001,20.97631875,11.0081359375,21.27461875,11.0081359375,21.64001875C11.0081359375,22.00541875,10.715985937500001,22.30371875,10.3506859375,22.31131875ZM10.3506859375,17.309518750000002L8.6655359375,17.309518750000002C8.300225937499999,17.301818750000002,8.0080759375,17.003518749999998,8.0080759375,16.63811875C8.0080759375,16.27271875,8.300225937499999,15.97441875,8.6655359375,15.96681875L10.3506859375,15.96681875C10.715985937500001,15.97441875,11.0081359375,16.27271875,11.0081359375,16.63811875C11.0081359375,17.003518749999998,10.715985937500001,17.301818750000002,10.3506859375,17.309518750000002ZM15.8895859375,22.31131875L14.2043859375,22.31131875C13.8390859375,22.30371875,13.5469859375,22.00541875,13.5469859375,21.64001875C13.5469859375,21.27461875,13.8390859375,20.97631875,14.2043859375,20.96861875L15.8895859375,20.96861875C16.2548859375,20.97631875,16.5469859375,21.27461875,16.5469859375,21.64001875C16.5469859375,22.00541875,16.2548859375,22.30371875,15.8895859375,22.31131875ZM15.8895859375,17.309518750000002L14.2043859375,17.309518750000002C13.8390859375,17.301818750000002,13.5469859375,17.003518749999998,13.5469859375,16.63811875C13.5469859375,16.27271875,13.8390859375,15.97441875,14.2043859375,15.96681875L15.8895859375,15.96681875C16.2548859375,15.97441875,16.5469859375,16.27271875,16.5469859375,16.63811875C16.5469859375,17.003518749999998,16.2548859375,17.301818750000002,15.8895859375,17.309518750000002ZM21.4286859375,22.31131875L19.7435859375,22.31131875C19.3782859375,22.30371875,19.086085937500002,22.00541875,19.086085937500002,21.64001875C19.086085937500002,21.27461875,19.3782859375,20.97631875,19.7435859375,20.96861875L21.4286859375,20.96861875C21.8049859375,20.96081875,22.1141859375,21.26361875,22.1141859375,21.64001875C22.1141859375,22.01631875,21.8049859375,22.31921875,21.4286859375,22.31131875ZM21.4286859375,17.309518750000002L19.7435859375,17.309518750000002C19.3782859375,17.301818750000002,19.086085937500002,17.003518749999998,19.086085937500002,16.63811875C19.086085937500002,16.27271875,19.3782859375,15.97441875,19.7435859375,15.96681875L21.4286859375,15.96681875C21.8049859375,15.95891875,22.1141859375,16.26181875,22.1141859375,16.63811875C22.1141859375,17.01451875,21.8049859375,17.31731875,21.4286859375,17.309518750000002Z" fill="#FFFFFF" fill-opacity="1" style="mix-blend-mode:passthrough"/></g><g><path d="M10.9619109375,2.7468723857421873L10.9619109375,5.445695385742187C10.9619109375,5.877715385742187,10.6117009375,6.2279253857421875,10.1796879375,6.2279253857421875C9.7476749375,6.2279253857421875,9.3974609375,5.877715385742187,9.3974609375,5.445695385742187L9.3974609375,2.7468723857421873C9.3974609375,2.3148603857421874,9.7476749375,1.9646453857421875,10.1796879375,1.9646453857421875C10.6117009375,1.9646453857421875,10.9619109375,2.3148603857421874,10.9619109375,2.7468723857421873ZM20.6099609375,2.7468723857421873L20.6099609375,5.445695385742187C20.6099609375,5.877715385742187,20.259760937499998,6.2279253857421875,19.827760937500003,6.2279253857421875C19.395720937500002,6.2279253857421875,19.045510937499998,5.877715385742187,19.045510937499998,5.445695385742187L19.045510937499998,2.7468723857421873C19.045510937499998,2.3148603857421874,19.395720937500002,1.9646453857421875,19.827760937500003,1.9646453857421875C20.259760937499998,1.9646453857421875,20.6099609375,2.3148603857421874,20.6099609375,2.7468723857421873Z" fill="#FFFFFF" fill-opacity="1" style="mix-blend-mode:passthrough"/></g></g></svg>