<svg xmlns="http://www.w3.org/2000/svg" xmlns:xlink="http://www.w3.org/1999/xlink" fill="none" version="1.1" width="30" height="30.000001907348633" viewBox="0 0 30 30.000001907348633"><defs><clipPath id="master_svg0_5_9312"><rect x="0" y="0" width="30" height="30.000001907348633" rx="0"/></clipPath></defs><g clip-path="url(#master_svg0_5_9312)"><g><path d="M13.4008723046875,0.00100065C12.9290723046875,0.0232663,12.566092304687501,0.429614,12.566092304687501,0.901997L12.566092304687501,5.34358C12.5660823046875,5.50506,12.435182304687501,5.63596,12.2737023046875,5.63596L10.8561423046875,5.63596C10.6946723046875,5.63596,10.5637623046875,5.50506,10.5637623046875,5.34358L10.5637623046875,0.901997C10.5637623046875,0.429731,10.2007723046875,0.0232663,9.7289823046875,0.00100065C9.225252304687501,-0.0227298,8.8093523046875,0.378696,8.8093523046875,0.877212L8.8093523046875,5.34358C8.8093523046875,5.50506,8.6784423046875,5.63596,8.5169723046875,5.63596L7.0994123046875,5.63596C6.9379323046875,5.63596,6.8070223046875,5.50506,6.8070223046875,5.34358L6.8070223046875,0.901997C6.8070223046875,0.429731,6.4440423046875,0.0232663,5.9722413046875005,0.00100065C5.4685103046875,-0.0227298,5.0526123046875,0.378696,5.0526123046875,0.877212L5.0526123046875,10.6302C5.0526123046875,11.3215,5.4367523046875,11.9429,6.0549723046874995,12.2517L6.8986623046875,12.6734C6.9184823046875,12.6833,6.9310023046875,12.7036,6.9310123046875,12.7257L6.9310123046875,28.1169C6.9310123046875,29.1181,7.7426523046875,29.9298,8.7439023046875,29.9298L10.6292723046875,29.9298C11.6304623046875,29.9298,12.4421623046875,29.1182,12.4421623046875,28.1169L12.4421623046875,12.7257C12.4421623046875,12.7036,12.454702304687501,12.6834,12.474502304687501,12.6735L13.3181423046875,12.2518C13.9364823046875,11.9429,14.3205623046875,11.3215,14.3205623046875,10.6303L14.3205623046875,0.877329C14.3205023046875,0.378696,13.9046023046875,-0.0226712,13.4008723046875,0.00100065ZM18.4351123046875,0.0373874C17.9507123046875,0.0373874,17.5579123046875,0.430141,17.5579123046875,0.914594L17.5579123046875,29.0643C17.5579123046875,29.5811,17.976912304687502,30,18.493612304687503,30L20.3790123046875,30C20.8957123046875,30,21.3146123046875,29.5811,21.3146123046875,29.0643L21.3146123046875,19.5988L24.0702123046875,19.5988C24.5547123046875,19.5988,24.9474123046875,19.206,24.9474123046875,18.7216L24.9474123046875,6.54973C24.9473123046875,2.95881,22.0260123046875,0.0373874,18.4351123046875,0.0373874Z" fill="#FFFFFF" fill-opacity="1" style="mix-blend-mode:passthrough"/></g></g></svg>