<svg xmlns="http://www.w3.org/2000/svg" xmlns:xlink="http://www.w3.org/1999/xlink" fill="none" version="1.1" width="12.25" height="14.001708984375" viewBox="0 0 12.25 14.001708984375"><g transform="matrix(1,0,0,-1,0,28.00341796875)"><path d="M11.375,28.001708984375Q11.1016,28.029008984375,10.2812,27.618908984375Q9.43359,27.236108984375,8.69531,26.197008984375Q7.92969,25.130608984375,7.875,23.189208984375L7.875,20.126708984375Q7.90234,19.388428984375,8.39453,18.896238984375Q8.88672,18.404048984375,9.625,18.376708984375L10.5,18.376708984375L10.5,14.876708984375Q10.5,14.493896984375,10.7461,14.247802984375Q10.9922,14.001708984375,11.375,14.001708984375Q11.7578,14.001708984375,12.0039,14.247802984375Q12.25,14.493896984375,12.25,14.876708984375L12.25,18.376708984375L12.25,21.439208984375L12.25,27.126708984375Q12.25,27.509508984375,12.0039,27.755608984375Q11.7578,28.001708984375,11.375,28.001708984375ZM1.75,27.564208984375Q1.72266,27.919708984375,1.36719,28.001708984375Q0.984375,28.001708984375,0.875,27.646208984375L0.0546875,23.927488984375Q0,23.681398984375,0,23.407958984375Q0.0273438,22.450928984375,0.628906,21.794678984375Q1.25781,21.111088984375,2.1875,21.001708984375L2.1875,14.876708984375Q2.1875,14.493896984375,2.43359,14.247802984375Q2.67969,14.001708984375,3.0625,14.001708984375Q3.44531,14.001708984375,3.69141,14.247802984375Q3.9375,14.493896984375,3.9375,14.876708984375L3.9375,21.001708984375Q4.86719,21.111088984375,5.49609,21.794678984375Q6.09766,22.450928984375,6.125,23.407958984375Q6.125,23.681398984375,6.07031,23.927488984375L5.25,27.646208984375Q5.14062,28.001708984375,4.75781,28.001708984375Q4.40234,27.919708984375,4.375,27.564208984375L4.375,23.900148984375Q4.34766,23.654048984375002,4.10156,23.626708984375Q3.88281,23.654048984375002,3.82812,23.872798984375002L3.5,27.591508984375Q3.44531,27.974408984375,3.0625,28.001708984375Q2.67969,27.974408984375,2.625,27.591508984375L2.29688,23.872798984375002Q2.24219,23.654048984375002,2.02344,23.626708984375Q1.77734,23.654048984375002,1.75,23.900148984375L1.75,27.564208984375ZM3.0625,23.407958984375L3.0625,23.435298984375002L3.0625,23.407958984375Z" fill="#8B5CF6" fill-opacity="1" style="mix-blend-mode:passthrough"/></g></svg>