<svg xmlns="http://www.w3.org/2000/svg" xmlns:xlink="http://www.w3.org/1999/xlink" fill="none" version="1.1" width="20.125" height="16" viewBox="0 0 20.125 16"><defs><clipPath id="master_svg0_5_5641"><rect x="0" y="0" width="20.125" height="16" rx="0"/></clipPath></defs><g clip-path="url(#master_svg0_5_5641)"><g transform="matrix(1,0,0,-1,0,32.6875)"><g><path d="M6.625,21.34375Q9.375,21.40625,11.2188,22.96875Q13.0625,24.5,13.125,26.84375Q13.0625,29.18755,11.2188,30.71875Q9.375,32.28125,6.625,32.34375Q3.875,32.28125,2.03125,30.71875Q0.1875,29.18755,0.125,26.84375Q0.15625,25,1.375,23.625Q1.1875,23.15625,0.90625,22.84375Q0.6875,22.5625,0.5,22.40625Q0.40625,22.3125,0.375,22.28125Q0.34375,22.25,0.34375,22.25L0.3125,22.25Q0.0625,22.03125,0.15625,21.6875Q0.28125,21.375,0.625,21.34375Q1.6875,21.375,2.5625,21.71875Q3,21.90625,3.34375,22.09375Q4.8125,21.375,6.625,21.34375ZM14.125,26.84375Q14.0312,24.15625,12.125,22.40625Q10.1875,20.65625,7.375,20.375Q7.96875,18.59375,9.65625,17.5Q11.3438,16.375,13.625,16.34375Q15.4375,16.375,16.9062,17.09375Q17.25,16.90625,17.6875,16.71875Q18.5625,16.375,19.625,16.34375Q19.9688,16.375,20.0938,16.6875Q20.1875,17.03125,19.9062,17.25L19.9062,17.28125Q19.875,17.28125,19.875,17.28125Q19.8438,17.3125,19.75,17.40625Q19.5625,17.5625,19.3438,17.84375Q19.0625,18.1875,18.875,18.625Q20.0938,20,20.125,21.84375Q20.0625,24.0625,18.375,25.59375Q16.6875,27.12495,14.0938,27.34375Q14.125,27.09375,14.125,26.84375Z" fill="#9CA3AF" fill-opacity="1" style="mix-blend-mode:passthrough"/></g></g></g></svg>