<svg xmlns="http://www.w3.org/2000/svg" xmlns:xlink="http://www.w3.org/1999/xlink" fill="none" version="1.1" width="30" height="24" viewBox="0 0 30 24"><defs><clipPath id="master_svg0_5_3891"><rect x="0" y="0" width="30" height="24" rx="0"/></clipPath></defs><g clip-path="url(#master_svg0_5_3891)"><g transform="matrix(1,0,0,-1,0,49.03125)"><g><path d="M15,48.515625Q15.6562,48.515625,16.0781,48.093725Q16.5,47.671825,16.5,47.015625L16.5,44.015625L22.125,44.015625Q23.5781,43.968725,24.5156,43.031225Q25.4531,42.093725,25.5,40.640625L25.5,27.890625Q25.4531,26.437505,24.5156,25.5Q23.5781,24.5625,22.125,24.515625L7.875,24.515625Q6.42188,24.5625,5.48438,25.5Q4.54688,26.437505,4.5,27.890625L4.5,40.640625Q4.54688,42.093725,5.48438,43.031225Q6.42188,43.968725,7.875,44.015625L13.5,44.015625L13.5,47.015625Q13.5,47.671825,13.9219,48.093725Q14.3438,48.515625,15,48.515625ZM9.75,30.515625Q9.04688,30.468745,9,29.765625Q9.04688,29.062505,9.75,29.015625L11.25,29.015625Q11.9531,29.062505,12,29.765625Q11.9531,30.468745,11.25,30.515625L9.75,30.515625ZM14.25,30.515625Q13.5469,30.468745,13.5,29.765625Q13.5469,29.062505,14.25,29.015625L15.75,29.015625Q16.4531,29.062505,16.5,29.765625Q16.4531,30.468745,15.75,30.515625L14.25,30.515625ZM18.75,30.515625Q18.0469,30.468745,18,29.765625Q18.0469,29.062505,18.75,29.015625L20.25,29.015625Q20.9531,29.062505,21,29.765625Q20.9531,30.468745,20.25,30.515625L18.75,30.515625ZM12.375,36.515625Q12.3281,37.593725,11.4375,38.156225Q10.5,38.625025,9.5625,38.156225Q8.67188,37.593725,8.625,36.515625Q8.67188,35.437525,9.5625,34.875025Q10.5,34.406245,11.4375,34.875025Q12.3281,35.437525,12.375,36.515625ZM19.5,34.640625Q20.5781,34.687525,21.1406,35.578125Q21.6094,36.515625,21.1406,37.453125Q20.5781,38.343725,19.5,38.390625Q18.4219,38.343725,17.8594,37.453125Q17.3906,36.515625,17.8594,35.578125Q18.4219,34.687525,19.5,34.640625ZM2.25,38.015625L3,38.015625L2.25,38.015625L3,38.015625L3,29.015625L2.25,29.015625Q1.3125,29.062505,0.65625,29.671875Q0.046875,30.328125,0,31.265625L0,35.765625Q0.046875,36.703125,0.65625,37.359425Q1.3125,37.968725,2.25,38.015625ZM27.75,38.015625Q28.6875,37.968725,29.3438,37.359425Q29.9531,36.703125,30,35.765625L30,31.265625Q29.9531,30.328125,29.3438,29.671875Q28.6875,29.062505,27.75,29.015625L27,29.015625L27,38.015625L27.75,38.015625Z" fill="#FFFFFF" fill-opacity="1" style="mix-blend-mode:passthrough"/></g></g></g></svg>