<svg xmlns="http://www.w3.org/2000/svg" xmlns:xlink="http://www.w3.org/1999/xlink" fill="none" version="1.1" width="35" height="35" viewBox="0 0 35 35"><defs><clipPath id="master_svg0_19_5740"><rect x="0" y="0" width="35" height="35" rx="0"/></clipPath></defs><g clip-path="url(#master_svg0_19_5740)"><g><path d="M30.03001953125,6.790000915527344L5.04001953125,6.790000915527344C4.62001953125,6.790000915527344,4.27001953125,7.140000915527343,4.27001953125,7.560000915527343L4.27001953125,28.140000915527345C4.27001953125,28.350000915527342,4.34001943125,28.560000915527343,4.48001953125,28.700000915527344C4.62001953125,28.840000915527344,4.8300195312500005,28.910000915527345,5.04001953125,28.910000915527345L30.03001953125,28.910000915527345C30.24001953125,28.910000915527345,30.45001953125,28.840000915527344,30.59001953125,28.700000915527344C30.73001953125,28.560000915527343,30.80001953125,28.350000915527342,30.80001953125,28.140000915527345L30.80001953125,7.490000915527344C30.80001953125,7.280000915527344,30.73001953125,7.070000915527344,30.59001953125,6.930000915527343C30.45001953125,6.860000515527344,30.24001953125,6.790000915527344,30.03001953125,6.790000915527344ZM6.23001953125,8.680000915527344L11.76001953125,8.680000915527344L11.76001953125,26.950000915527344L6.23001953125,26.950000915527344L6.23001953125,8.680000915527344ZM28.91001953125,26.950000915527344L13.65001953125,26.950000915527344L13.65001953125,8.680000915527344L28.91001953125,8.680000915527344L28.91001953125,26.950000915527344Z" fill="#9CA3AF" fill-opacity="1" style="mix-blend-mode:passthrough"/></g><g><path d="M17.57000732421875,12.180000305175781L24.64000732421875,12.180000305175781L24.64000732421875,14.070000305175782L17.57000732421875,14.070000305175782L17.57000732421875,12.180000305175781ZM17.57000732421875,17.15000030517578L24.64000732421875,17.15000030517578L24.64000732421875,19.04000030517578L17.57000732421875,19.04000030517578L17.57000732421875,17.15000030517578ZM17.57000732421875,22.12000030517578L24.64000732421875,22.12000030517578L24.64000732421875,24.01000030517578L17.57000732421875,24.01000030517578L17.57000732421875,22.12000030517578Z" fill="#9CA3AF" fill-opacity="1" style="mix-blend-mode:passthrough"/></g></g></svg>